# xmcd
# 
# Track frame offsets:
#	150
#	20465
#	41064
#	50923
#	68758
#	90641
#	106523
#	122144
#	138282
#	154926
#	176174
#	198249
#
# Disc length: 2901 seconds
#
# Revision: 1
# Processed by: cddbd v1.5.1PL0 Copyright (c) Steve Scherf et al.
# Submitted via: Audio-CD-Archiv 3.00.487
#
DISCID=a20b530c
DTITLE=Santana - Zebop
DYEAR=1900
DGENRE=blues
TTITLE0=Changes
TTITLE1=E Papa Re
TTITLE2=Primera Invasion
TTITLE3=Searchin'
TTITLE4=Over And Over
TTITLE5=Winning
TTITLE6=Tales Of Kilimanjaro
TTITLE7=The Sensitive Kind
TTITLE8=American Gypsy
TTITLE9=I Love You Much Too Much
TTITLE10=Brightest Star
TTITLE11=Hannibal
EXTD=
EXTT0=
EXTT1=
EXTT2=
EXTT3=
EXTT4=
EXTT5=
EXTT6=
EXTT7=
EXTT8=
EXTT9=
EXTT10=
EXTT11=
PLAYORDER=
